<svg height="512pt" viewBox="-31 0 512 512" width="512pt" xmlns="http://www.w3.org/2000/svg"><path d="m420 497c0-8.289062-6.710938-15-15-15h-60l-10.855469-21.710938c-2.539062-5.078124-7.734375-8.289062-13.414062-8.289062h-191.460938c-5.679687 0-10.875 3.210938-13.414062 8.289062l-10.855469 21.710938h-60c-8.289062 0-15 6.710938-15 15s6.710938 15 15 15h360c8.289062 0 15-6.710938 15-15zm0 0"/><path d="m330 150h-210v272h210zm-150 227c0 8.289062-6.710938 15-15 15s-15-6.710938-15-15v-182c0-8.289062 6.710938-15 15-15s15 6.710938 15 15zm60 0c0 8.289062-6.710938 15-15 15s-15-6.710938-15-15v-182c0-8.289062 6.710938-15 15-15s15 6.710938 15 15zm60 0c0 8.289062-6.710938 15-15 15s-15-6.710938-15-15v-182c0-8.289062 6.710938-15 15-15s15 6.710938 15 15zm0 0"/><path d="m450 60c0-33.136719-26.863281-60-60-60h-330c-33.136719 0-60 26.863281-60 60 0 31.347656 24.125 56.78125 54.773438 59.472656v-.492187c11.242187 3.109375 22.605468-1.953125 27.757812-8.738281 4.335938-5.710938 4.234375-11.804688-.320312-18.617188-3.265626-4.949219-9.902344-6.253906-14.839844-2.988281-6.898438 4.585937-16.199219 2.710937-20.800782-4.160157-4.597656-6.898437-2.722656-16.214843 4.160157-20.800781 18.691406-12.464843 43.988281-7.382812 56.441406 11.292969 9.722656 14.585938 10.648437 30.761719 3.820313 45.03125h222.785156c-6.824219-14.269531-5.898438-30.445312 3.824218-45.03125 12.449219-18.675781 37.75-23.757812 56.4375-11.292969 6.886719 4.585938 8.761719 13.902344 4.160157 20.800781-4.597657 6.871094-13.898438 8.746094-20.800781 4.160157-4.933594-3.265625-11.570313-1.960938-14.835938 2.988281-4.558594 6.8125-4.660156 12.90625-.324219 18.617188 5.152344 6.785156 16.519531 11.847656 27.757813 8.738281v1.019531c33.140625 0 60.003906-26.863281 60.003906-60zm-165 15h-120c-8.289062 0-15-6.710938-15-15s6.710938-15 15-15h120c8.289062 0 15 6.710938 15 15s-6.710938 15-15 15zm0 0"/></svg>